<svg xmlns="http://www.w3.org/2000/svg" width="410" height="404" viewBox="0 0 410 404" fill="none">
  <g clip-path="url(#clip0_1_17)">
    <path d="M399.641 59.5253L215.643 388.545C211.844 395.388 202.084 395.389 198.284 388.546L10.5817 59.5253C6.38087 52.0523 12.6802 43.0134 21.2839 44.7586L205.057 82.8786C206.966 83.2674 208.934 83.2674 210.843 82.8786L389.113 44.7586C397.717 43.0134 404.016 52.0523 399.815 59.5253H399.641Z" fill="url(#paint0_linear_1_17)"/>
    <path d="M292.965 1.5744L156.2 28.2552C154.697 28.5487 153.367 29.4446 152.542 30.7517C151.717 32.0587 151.464 33.6696 151.841 35.1968L195.417 207.929C195.721 209.202 196.462 210.342 197.522 211.157C198.582 211.973 199.899 212.418 201.254 212.418H270.35C272.291 212.418 274.132 211.622 275.404 210.189C276.676 208.757 277.269 206.821 277.05 204.889L263.753 88.8205C263.603 87.5115 264.044 86.2054 264.956 85.2418C265.868 84.2782 267.17 83.7451 268.523 83.7641L305.284 84.2608C307.099 84.288 308.847 83.588 310.08 82.3123C311.313 81.0366 311.92 79.2842 311.771 77.5184L308.662 41.8231C308.514 40.0634 307.691 38.4249 306.353 37.2552C305.014 36.0856 303.252 35.4745 301.44 35.5465L234.708 38.2915C232.856 38.3651 231.095 39.0312 229.765 40.1887C228.435 41.3462 227.624 42.908 227.5 44.5612L224.037 89.1577C223.993 89.7143 224.071 90.2739 224.267 90.8018C224.463 91.3297 224.773 91.8142 225.18 92.2245C225.588 92.6348 226.085 92.9601 226.641 93.1837C227.196 93.4073 227.798 93.5244 228.406 93.5284H276.74" stroke="#FF8C00" stroke-width="15" stroke-linecap="round" stroke-linejoin="round"/>
  </g>
  <defs>
    <linearGradient id="paint0_linear_1_17" x1="6.00017" y1="32.9999" x2="235" y2="344" gradientUnits="userSpaceOnUse">
      <stop stop-color="#41D1FF"/>
      <stop offset="1" stop-color="#BD34FE"/>
    </linearGradient>
    <clipPath id="clip0_1_17">
      <rect width="410" height="404" fill="white"/>
    </clipPath>
  </defs>
</svg>
